<svg id="Layer_1" data-name="Layer 1" xmlns="http://www.w3.org/2000/svg" viewBox="0 0 150 150"><defs><style>.cls-1{fill:#b5f7e8;}.cls-2{fill:#52bcca;}.cls-3{fill:#00cfdd;}.cls-4{fill:#f3c144;}.cls-5{fill:#fa7a49;}</style></defs><title>integration</title><circle class="cls-1" cx="75" cy="75" r="74"/><path class="cls-2" d="M111.4,89.53H41.11a22.4,22.4,0,0,1,0-44.8,21.29,21.29,0,0,1,2.49.15,17.93,17.93,0,0,1,16.9-12.2,17.66,17.66,0,0,1,8.1,2,28.9,28.9,0,0,1,21.21-9.18,29.25,29.25,0,0,1,25.57,15.21,24.6,24.6,0,0,1-4,48.87ZM41.11,50.75a16.38,16.38,0,0,0,0,32.76H111.4a18.58,18.58,0,0,0,1.75-37.07,3,3,0,0,1-2.44-1.71A23.2,23.2,0,0,0,89.81,31.47a23,23,0,0,0-18.22,8.92,3,3,0,0,1-4.15.58,11.7,11.7,0,0,0-6.94-2.27A11.86,11.86,0,0,0,48.84,48.78a3,3,0,0,1-3.71,2.48A16.5,16.5,0,0,0,41.11,50.75Z"/><polygon class="cls-3" points="92.42 67.78 101.74 51.63 111.08 67.77 92.42 67.78"/><polygon class="cls-4" points="31.25 113.54 15.1 104.22 31.24 94.89 31.25 113.54"/><polygon class="cls-5" points="68.64 107.58 77.96 123.73 87.3 107.58 68.64 107.58"/><path class="cls-5" d="M78,119.66a4,4,0,0,1-4-4V53.51a4,4,0,1,1,8,0v62.14A4,4,0,0,1,78,119.66Z"/><path class="cls-4" d="M53.91,108.23H26.42a4,4,0,0,1,0-8H49.9V61.59a4,4,0,1,1,8,0v42.63A4,4,0,0,1,53.91,108.23Z"/><path class="cls-3" d="M129.24,108.23H101.75a4,4,0,0,1-4-4V61.59a4,4,0,1,1,8,0V100.2h23.48a4,4,0,0,1,0,8Z"/></svg>