<?xml version="1.0" encoding="iso-8859-1"?>
<!-- Generator: Adobe Illustrator 19.0.0, SVG Export Plug-In . SVG Version: 6.00 Build 0)  -->
<svg version="1.1" id="Layer_1" xmlns="http://www.w3.org/2000/svg" xmlns:xlink="http://www.w3.org/1999/xlink" x="0px" y="0px"
	 viewBox="0 0 396.218 396.218" style="enable-background:new 0 0 396.218 396.218;" xml:space="preserve">
<path style="fill:#FFFFFF;" d="M364.089,107.216c2.457-7.434,3.685-15.451,3.685-24.113c0-42.667-34.004-76.671-76.671-76.671
	c-15.451,0-29.673,4.978-42.02,12.347c-12.994-6.788-27.798-11.119-43.248-12.347c-2.457,0-4.913,0-8.016,0
	c-3.103,0-5.56,0-8.663,0.646c-45.77,3.103-84.105,34.004-98.263,75.442c-46.998,0.646-84.687,38.335-84.687,85.333
	s38.335,85.333,85.333,85.333c45.123,0,167.499,0,212.687,0c46.998,0,85.333-38.335,85.333-85.333
	C389.43,144.323,379.539,122.667,364.089,107.216z"/>
<g>
	<rect x="245.398" y="278.465" style="fill:#193651;" width="12.347" height="12.347"/>
	<rect x="245.398" y="307.556" style="fill:#193651;" width="12.347" height="12.347"/>
	<rect x="245.398" y="336.582" style="fill:#193651;" width="12.347" height="12.347"/>
	<rect x="137.826" y="278.465" style="fill:#193651;" width="12.347" height="12.347"/>
	<rect x="137.826" y="307.556" style="fill:#193651;" width="12.347" height="12.347"/>
	<rect x="137.826" y="336.582" style="fill:#193651;" width="12.347" height="12.347"/>
</g>
<circle style="fill:#FDBF5E;" cx="292.396" cy="170.311" r="21.657"/>
<g>
	<circle style="fill:#F16051;" cx="239.257" cy="83.103" r="21.657"/>
	<circle style="fill:#F16051;" cx="197.818" cy="368.129" r="21.657"/>
</g>
<circle style="fill:#FDBF5E;" cx="367.838" cy="368.129" r="21.657"/>
<g>
	<circle style="fill:#4FBF9F;" cx="110.028" cy="170.311" r="21.657"/>
	<circle style="fill:#4FBF9F;" cx="27.798" cy="368.129" r="21.657"/>
</g>
<path style="fill:#193651;" d="M367.838,339.685c-13.576,0-24.76,9.244-27.216,21.657h-41.438V259.329h5.56
	c50.683,0,91.475-40.792,91.475-91.475c0-23.467-8.663-45.123-24.76-62.448c1.875-7.434,3.103-14.804,3.103-22.238
	c-0.582-45.77-37.624-82.877-83.394-82.877c-14.869,0-29.673,4.331-42.667,11.766C218.182-1.519,194.133,0.291,188.509,0.937
	C142.739,4.04,103.176,33.713,86.497,76.38C38.335,79.418,0,119.628,0,167.79c0,50.683,40.792,91.475,91.475,91.475h12.347v102.012
	H55.661c-3.103-12.348-14.222-21.592-27.216-21.592C12.347,339.685,0,352.679,0,368.129s12.347,27.798,27.798,27.798
	c13.576,0,24.76-9.244,27.216-21.657h60.574V259.329h76.024v81.002c-12.347,3.103-21.657,14.222-21.657,27.216
	c0,15.451,12.347,27.798,27.798,27.798s27.798-12.347,27.798-27.798c0-13.576-9.244-24.76-21.657-27.216v-81.002h82.23v114.36
	h53.786c3.103,12.347,14.222,21.657,27.216,21.657c15.451,0,27.798-12.347,27.798-27.798
	C395.636,352.679,383.289,339.685,367.838,339.685z M27.798,383.58c-8.663,0-15.451-6.788-15.451-15.451
	c0-8.663,6.788-15.451,15.451-15.451s15.451,6.788,15.451,15.451C43.895,376.792,36.461,383.58,27.798,383.58z M110.028,186.343
	c-8.663,0-15.451-6.788-15.451-15.451c0-8.663,6.788-15.451,15.451-15.451s15.451,6.788,15.451,15.451
	C125.479,178.974,118.691,186.343,110.028,186.343z M213.269,368.129c0,8.663-6.788,15.451-15.451,15.451
	c-8.663,0-15.451-6.788-15.451-15.451c0-8.663,6.788-15.451,15.451-15.451C206.481,352.032,213.269,359.467,213.269,368.129z
	 M286.19,246.917h-82.166V131.976l21.657-24.76c3.685,2.457,8.663,3.685,13.576,3.685c15.451,0,27.798-12.347,27.798-27.798
	s-12.347-27.798-27.798-27.798s-27.798,12.347-27.798,27.798c0,6.206,1.875,11.766,5.56,16.679l-24.76,28.444v119.337h-76.024
	v-49.455c12.347-3.103,21.657-14.222,21.657-27.216c0-15.451-12.347-27.798-27.798-27.798s-27.798,12.347-27.798,27.798
	c0,13.576,9.244,24.76,21.657,27.216v49.455H91.604c-43.895-0.646-79.127-35.879-79.127-79.774
	c0-43.248,35.232-78.481,78.481-79.127h4.331l1.228-4.331c14.222-40.21,50.683-68.59,93.349-71.693
	c3.103,0,28.444-2.457,56.889,11.766l3.103,1.875l3.103-1.875c11.766-7.434,24.76-11.766,38.917-11.766
	c38.917,0,70.465,31.547,70.465,70.465c0,7.434-1.228,14.804-3.685,22.238l-1.228,3.685l2.457,2.457
	c15.451,14.804,23.467,35.232,23.467,56.242c0,43.895-35.232,79.127-79.127,79.127h-5.56v-49.39
	c12.347-3.103,21.657-14.222,21.657-27.216c0-15.451-12.347-27.798-27.798-27.798s-27.798,12.347-27.798,27.798
	c0,13.576,9.244,24.76,21.657,27.216v49.455H286.19z M223.16,83.103c0-8.663,6.788-15.451,15.451-15.451
	c8.663,0,15.451,6.788,15.451,15.451s-6.788,15.451-15.451,15.451C230.594,98.554,223.16,91.766,223.16,83.103z M276.945,170.311
	c0-8.663,6.788-15.451,15.451-15.451c8.663,0,15.451,6.788,15.451,15.451c0,8.663-6.788,15.451-15.451,15.451
	C283.733,186.343,276.945,178.974,276.945,170.311z M367.838,383.58c-8.663,0-15.451-6.788-15.451-15.451
	c0-8.663,6.788-15.451,15.451-15.451c8.663,0,15.451,6.788,15.451,15.451C383.289,376.792,376.501,383.58,367.838,383.58z"/>
<g>
</g>
<g>
</g>
<g>
</g>
<g>
</g>
<g>
</g>
<g>
</g>
<g>
</g>
<g>
</g>
<g>
</g>
<g>
</g>
<g>
</g>
<g>
</g>
<g>
</g>
<g>
</g>
<g>
</g>
</svg>
