<svg id="Layer_1" data-name="Layer 1" xmlns="http://www.w3.org/2000/svg" viewBox="0 0 150 150"><defs><style>.cls-1{fill:#b5f7e8;}.cls-2{fill:#005b83;}.cls-3{fill:#f3c144;}.cls-4{fill:#00cfdd;}</style></defs><title>manage</title><circle class="cls-1" cx="75" cy="75" r="74"/><path class="cls-2" d="M108.1,52.47h-5.9a23.29,23.29,0,0,0-2-4.77l4.16-4.16a2.34,2.34,0,0,0,0-3.3l-5.92-5.92a2.33,2.33,0,0,0-3.3,0L91,38.47a23.31,23.31,0,0,0-4.78-2v-5.9a2.34,2.34,0,0,0-2.34-2.34H75.54a2.34,2.34,0,0,0-2.34,2.34v5.9a23.32,23.32,0,0,0-4.78,2l-4.16-4.16a2.34,2.34,0,0,0-3.3,0L55,40.23a2.34,2.34,0,0,0,0,3.3l4.16,4.16a23.27,23.27,0,0,0-2,4.77h-5.9A2.34,2.34,0,0,0,49,54.8v8.37a2.34,2.34,0,0,0,2.34,2.33h5.9a23.31,23.31,0,0,0,2,4.78l-4.16,4.16a2.33,2.33,0,0,0,0,3.3L61,83.66a2.34,2.34,0,0,0,3.3,0l4.16-4.17a23.13,23.13,0,0,0,4.77,2v5.9a2.33,2.33,0,0,0,2.34,2.33h8.37a2.34,2.34,0,0,0,2.34-2.33v-5.9a23.31,23.31,0,0,0,4.77-2l4.16,4.17a2.33,2.33,0,0,0,3.3,0l5.92-5.92a2.33,2.33,0,0,0,0-3.3l-4.17-4.16a23.32,23.32,0,0,0,2-4.78h5.9a2.33,2.33,0,0,0,2.34-2.33V54.8A2.34,2.34,0,0,0,108.1,52.47ZM79.72,73.06A14.08,14.08,0,1,1,93.8,59,14.09,14.09,0,0,1,79.72,73.06Z"/><path class="cls-2" d="M82.17,108.08l-3-1.21a12.63,12.63,0,0,0,0-2.8l3-1.24a1.27,1.27,0,0,0,.68-1.66L81.07,97a1.26,1.26,0,0,0-1.66-.68l-2.95,1.24a12.57,12.57,0,0,0-2-2l1.21-3A1.27,1.27,0,0,0,75,91l-4.2-1.72a1.27,1.27,0,0,0-1.65.7l-1.21,3a12.6,12.6,0,0,0-2.8,0l-1.24-3a1.27,1.27,0,0,0-1.66-.67L58,91a1.27,1.27,0,0,0-.68,1.65l1.24,3a12.82,12.82,0,0,0-2,2l-3-1.21a1.26,1.26,0,0,0-1.65.69L50.44,101A1.74,1.74,0,0,0,50,99.47L46.8,96.3a17.79,17.79,0,0,0,1.5-3.63h4.49a1.78,1.78,0,0,0,1.78-1.78V84.52a1.78,1.78,0,0,0-1.78-1.77H48.3a17.66,17.66,0,0,0-1.5-3.63L50,75.94a1.77,1.77,0,0,0,0-2.51l-4.5-4.5a1.76,1.76,0,0,0-2.51,0L39.79,72.1a17.85,17.85,0,0,0-3.63-1.5V66.11a1.78,1.78,0,0,0-1.78-1.78H28a1.78,1.78,0,0,0-1.78,1.78V70.6a17.81,17.81,0,0,0-3.63,1.5l-3.17-3.16a1.77,1.77,0,0,0-2.51,0l-4.5,4.5a1.78,1.78,0,0,0,0,2.51l3.17,3.17a17.78,17.78,0,0,0-1.5,3.63H9.6a1.78,1.78,0,0,0-1.78,1.77v6.37A1.78,1.78,0,0,0,9.6,92.66h4.49a17.73,17.73,0,0,0,1.5,3.63l-3.17,3.17a1.78,1.78,0,0,0,0,2.51l4.5,4.5a1.78,1.78,0,0,0,2.51,0l3.17-3.17a17.69,17.69,0,0,0,3.63,1.5v4.49A1.77,1.77,0,0,0,28,111.07h6.37a1.78,1.78,0,0,0,1.78-1.77v-4.49a17.72,17.72,0,0,0,3.63-1.5L43,106.48a1.78,1.78,0,0,0,2.51,0L50,102a1.7,1.7,0,0,0,.29-.44A1.25,1.25,0,0,0,51,103l3,1.21a12.6,12.6,0,0,0,0,2.8l-3,1.24a1.26,1.26,0,0,0-.67,1.66l1.76,4.18a1.26,1.26,0,0,0,1.65.68l3-1.24a12.68,12.68,0,0,0,2,2l-1.21,3a1.27,1.27,0,0,0,.7,1.65l4.2,1.72a1.27,1.27,0,0,0,1.65-.7l1.21-3a12.9,12.9,0,0,0,2.8,0l1.24,2.95a1.27,1.27,0,0,0,1.66.68L75.12,120a1.27,1.27,0,0,0,.68-1.66l-1.24-2.95a12.68,12.68,0,0,0,2-2l3,1.21a1.27,1.27,0,0,0,1.65-.69l1.72-4.2A1.26,1.26,0,0,0,82.17,108.08Zm-51-9.66A10.71,10.71,0,1,1,41.91,87.71,10.72,10.72,0,0,1,31.19,98.42Zm28.34,10.06a7.64,7.64,0,1,1,10,4.09A7.65,7.65,0,0,1,59.54,108.48Z"/><path class="cls-3" d="M141.08,121.66a5.66,5.66,0,0,1-1.65,7.84l-8.1,5.29a5.67,5.67,0,0,1-7.84-1.65L96,91.07a5.67,5.67,0,0,1,1.64-7.84l8.1-5.3a5.67,5.67,0,0,1,7.84,1.64Z"/><path class="cls-4" d="M84.51,92.77A39.77,39.77,0,0,1,51.18,74.6C39.2,56.27,44.1,31.78,62.11,20a38.38,38.38,0,0,1,21-6.26,39.76,39.76,0,0,1,33.33,18.17c12,18.33,7.08,42.82-10.93,54.59A38.4,38.4,0,0,1,84.51,92.77Zm-1.36-69A28.37,28.37,0,0,0,67.6,28.42c-13.37,8.74-17,27-8,40.7A29.76,29.76,0,0,0,84.51,82.74a28.37,28.37,0,0,0,15.56-4.63c13.37-8.74,17-27,8-40.7A29.76,29.76,0,0,0,83.15,23.79Z"/></svg>