<svg id="Layer_1" data-name="Layer 1" xmlns="http://www.w3.org/2000/svg" viewBox="0 0 150 150"><defs><style>.cls-1{fill:#b5f7e8;}.cls-2{fill:#005b83;}.cls-3{fill:#00cfdd;}.cls-4{fill:#fa7a49;}.cls-5{fill:#bbebff;}</style></defs><title>migration</title><circle class="cls-1" cx="75.5" cy="75.5" r="74"/><path class="cls-2" d="M73.8,95.61a2.36,2.36,0,0,1-2.36-2.36V81.84a2.36,2.36,0,0,1,4.72,0V93.25A2.36,2.36,0,0,1,73.8,95.61Z"/><path class="cls-3" d="M56.53,43.33H90.21a1.52,1.52,0,0,1,1.52,1.52V72.71a1.51,1.51,0,0,1-1.51,1.51H56.53A1.51,1.51,0,0,1,55,72.71V44.85A1.51,1.51,0,0,1,56.53,43.33Z"/><path class="cls-2" d="M55.39,30H91.92a1.51,1.51,0,0,1,1.51,1.51V44.55a1.52,1.52,0,0,1-1.52,1.52H55.4a1.52,1.52,0,0,1-1.52-1.52V31.5A1.51,1.51,0,0,1,55.39,30Z"/><path class="cls-2" d="M55.4,48.55H91.92a1.51,1.51,0,0,1,1.51,1.51V63.12a1.51,1.51,0,0,1-1.51,1.51H55.4a1.52,1.52,0,0,1-1.52-1.52V50.07A1.52,1.52,0,0,1,55.4,48.55Z"/><path class="cls-2" d="M55.39,67.12H91.92a1.51,1.51,0,0,1,1.51,1.51V81.69a1.51,1.51,0,0,1-1.51,1.51H55.4a1.52,1.52,0,0,1-1.52-1.52V68.63A1.51,1.51,0,0,1,55.39,67.12Z"/><path class="cls-4" d="M57.83,33.87h1.93A1.11,1.11,0,0,1,60.86,35v1.93A1.11,1.11,0,0,1,59.75,38H57.82a1.1,1.1,0,0,1-1.1-1.1V35A1.11,1.11,0,0,1,57.83,33.87Z"/><rect class="cls-3" x="62.4" y="33.87" width="4.14" height="4.15" rx="1.11" ry="1.11"/><path class="cls-5" d="M69.59,33.87H89.27a1.51,1.51,0,0,1,1.51,1.51v5.3a1.52,1.52,0,0,1-1.52,1.52H69.59a1.51,1.51,0,0,1-1.51-1.51v-5.3A1.51,1.51,0,0,1,69.59,33.87Z"/><path class="cls-4" d="M57.83,52.43h1.93a1.11,1.11,0,0,1,1.11,1.11v1.93a1.11,1.11,0,0,1-1.11,1.11H57.82a1.1,1.1,0,0,1-1.1-1.1V53.54a1.11,1.11,0,0,1,1.11-1.11Z"/><rect class="cls-3" x="62.4" y="52.43" width="4.14" height="4.14" rx="1.11" ry="1.11"/><path class="cls-5" d="M69.59,52.43H89.27a1.51,1.51,0,0,1,1.51,1.51v5.3a1.52,1.52,0,0,1-1.52,1.52H69.59a1.51,1.51,0,0,1-1.51-1.51v-5.3A1.51,1.51,0,0,1,69.59,52.43Z"/><path class="cls-4" d="M57.83,71h1.93a1.11,1.11,0,0,1,1.11,1.11V74a1.11,1.11,0,0,1-1.11,1.11H57.82a1.1,1.1,0,0,1-1.1-1.1V72.11A1.11,1.11,0,0,1,57.83,71Z"/><rect class="cls-3" x="62.4" y="71" width="4.14" height="4.14" rx="1.11" ry="1.11"/><rect class="cls-5" x="68.07" y="71" width="22.71" height="8.33" rx="1.51" ry="1.51"/><rect class="cls-2" x="22.76" y="65.32" width="25.14" height="55.25" rx="3.18" ry="3.18"/><path class="cls-5" d="M44,70.18a.79.79,0,0,1-.79.79h-16a.79.79,0,0,1-.79-.79h0a.79.79,0,0,1,.79-.79h16a.79.79,0,0,1,.79.79Z"/><path class="cls-5" d="M44,72.48a.79.79,0,0,1-.79.79h-16a.79.79,0,0,1-.79-.79h0a.79.79,0,0,1,.79-.79h16a.79.79,0,0,1,.79.79Z"/><path class="cls-5" d="M44,74.79a.79.79,0,0,1-.79.79h-16a.79.79,0,0,1-.79-.79h0a.79.79,0,0,1,.79-.79h16a.79.79,0,0,1,.79.79Z"/><rect class="cls-5" x="26.36" y="96.24" width="17.6" height="21.36" rx="2.08" ry="2.08"/><rect class="cls-2" x="36.17" y="99.36" width="5.68" height="5.69" rx="2.08" ry="2.08"/><rect class="cls-4" x="26.57" y="78.02" width="3.29" height="3.29" rx="0.88" ry="0.88"/><rect class="cls-3" x="31.08" y="78.02" width="3.29" height="3.29" rx="0.88" ry="0.88"/><rect class="cls-2" x="98.86" y="65.32" width="25.14" height="55.25" rx="3.18" ry="3.18"/><path class="cls-5" d="M120.06,70.18a.79.79,0,0,1-.79.79h-16a.79.79,0,0,1-.79-.79h0a.79.79,0,0,1,.79-.79h16a.79.79,0,0,1,.79.79Z"/><path class="cls-5" d="M120.06,72.48a.79.79,0,0,1-.79.79h-16a.79.79,0,0,1-.79-.79h0a.79.79,0,0,1,.79-.79h16a.79.79,0,0,1,.79.79Z"/><path class="cls-5" d="M120.06,74.79a.79.79,0,0,1-.79.79h-16a.79.79,0,0,1-.79-.79h0a.79.79,0,0,1,.79-.79h16a.79.79,0,0,1,.79.79Z"/><rect class="cls-5" x="102.46" y="96.24" width="17.6" height="21.36" rx="2.08" ry="2.08"/><rect class="cls-2" x="112.27" y="99.36" width="5.69" height="5.69" rx="2.08" ry="2.08"/><rect class="cls-4" x="102.67" y="78.02" width="3.29" height="3.29" rx="0.88" ry="0.88"/><rect class="cls-3" x="107.17" y="78.02" width="3.29" height="3.29" rx="0.88" ry="0.88"/><path class="cls-2" d="M100.88,96.16H48.75a2.36,2.36,0,0,1,0-4.72h52.13a2.36,2.36,0,0,1,0,4.72Z"/></svg>